<svg width="239" height="68" viewBox="0 0 239 68" fill="none" xmlns="http://www.w3.org/2000/svg">
<path d="M19.6709 53L12.3711 27.292H12.1514C12.2165 27.9593 12.2816 28.8626 12.3467 30.002C12.4281 31.1413 12.5013 32.3701 12.5664 33.6885C12.6315 35.0068 12.6641 36.2764 12.6641 37.4971V53H4.11914V17.3066H16.9609L24.4072 42.6484H24.6025L31.9023 17.3066H44.7686V53H35.9062V37.3506C35.9062 36.2275 35.9225 35.0231 35.9551 33.7373C36.0039 32.4352 36.0527 31.2145 36.1016 30.0752C36.1667 28.9196 36.2236 28.0081 36.2725 27.3408H36.0527L28.8506 53H19.6709ZM74.3584 53L72.6006 46.3105H61.0039L59.1973 53H48.6016L60.2471 17.1602H73.1133L84.9053 53H74.3584ZM70.5986 38.4004L69.0605 32.541C68.8978 31.9062 68.6618 31.0029 68.3525 29.8311C68.0433 28.6429 67.734 27.4222 67.4248 26.1689C67.1318 24.8994 66.904 23.8577 66.7412 23.0439C66.5947 23.8577 66.3831 24.8669 66.1064 26.0713C65.846 27.2594 65.5693 28.4395 65.2764 29.6113C64.9997 30.7832 64.7555 31.7598 64.5439 32.541L63.0059 38.4004H70.5986ZM122.771 53H110.125L97.0879 27.8535H96.8682C96.9495 28.6185 97.0228 29.5381 97.0879 30.6123C97.153 31.6865 97.21 32.7852 97.2588 33.9082C97.3076 35.015 97.332 36.016 97.332 36.9111V53H88.7871V17.3066H101.385L114.373 42.1113H114.52C114.471 41.3301 114.422 40.4268 114.373 39.4014C114.324 38.3597 114.275 37.3099 114.227 36.252C114.194 35.194 114.178 34.2581 114.178 33.4443V17.3066H122.771V53ZM155.926 53H128.118V47.043L143.572 25.0947H128.484V17.3066H155.535V23.2393L140.081 45.2119H155.926V53ZM194.451 35.1045C194.451 37.8551 194.118 40.3617 193.45 42.624C192.799 44.8701 191.774 46.807 190.374 48.4346C188.974 50.0622 187.176 51.3154 184.979 52.1943C182.781 53.057 180.153 53.4883 177.093 53.4883C174.098 53.4883 171.502 53.057 169.305 52.1943C167.124 51.3154 165.325 50.0703 163.909 48.459C162.493 46.8314 161.443 44.8864 160.76 42.624C160.076 40.3617 159.734 37.8389 159.734 35.0557C159.734 31.3447 160.345 28.1221 161.565 25.3877C162.802 22.637 164.707 20.513 167.278 19.0156C169.85 17.502 173.138 16.7451 177.142 16.7451C181.211 16.7451 184.515 17.502 187.054 19.0156C189.609 20.5293 191.481 22.6615 192.669 25.4121C193.857 28.1628 194.451 31.3936 194.451 35.1045ZM169.891 35.1045C169.891 37.2529 170.135 39.1003 170.623 40.6465C171.111 42.1927 171.884 43.3809 172.942 44.2109C174 45.041 175.384 45.4561 177.093 45.4561C178.867 45.4561 180.275 45.041 181.316 44.2109C182.374 43.3809 183.131 42.1927 183.587 40.6465C184.059 39.1003 184.295 37.2529 184.295 35.1045C184.295 31.8818 183.758 29.3346 182.684 27.4629C181.609 25.5911 179.762 24.6553 177.142 24.6553C175.4 24.6553 173.992 25.0785 172.918 25.9248C171.86 26.7712 171.087 27.9756 170.599 29.5381C170.127 31.1006 169.891 32.9561 169.891 35.1045ZM234.881 53H222.234L209.197 27.8535H208.978C209.059 28.6185 209.132 29.5381 209.197 30.6123C209.262 31.6865 209.319 32.7852 209.368 33.9082C209.417 35.015 209.441 36.016 209.441 36.9111V53H200.896V17.3066H213.494L226.482 42.1113H226.629C226.58 41.3301 226.531 40.4268 226.482 39.4014C226.434 38.3597 226.385 37.3099 226.336 36.252C226.303 35.194 226.287 34.2581 226.287 33.4443V17.3066H234.881V53Z" fill="#C38029"/>
</svg>
