<svg width="41" height="36" viewBox="0 0 41 36" fill="none" xmlns="http://www.w3.org/2000/svg">
<path d="M15.7393 36L8.43945 10.292H8.21973C8.28483 10.9593 8.34993 11.8626 8.41504 13.002C8.49642 14.1413 8.56966 15.3701 8.63477 16.6885C8.69987 18.0068 8.73242 19.2764 8.73242 20.4971V36H0.1875V0.306641H13.0293L20.4756 25.6484H20.6709L27.9707 0.306641H40.8369V36H31.9746V20.3506C31.9746 19.2275 31.9909 18.0231 32.0234 16.7373C32.0723 15.4352 32.1211 14.2145 32.1699 13.0752C32.235 11.9196 32.292 11.0081 32.3408 10.3408H32.1211L24.9189 36H15.7393Z" fill="#C38029"/>
</svg>
